<?xml version="1.0" standalone="no"?>
<!DOCTYPE svg PUBLIC "-//W3C//DTD SVG 20010904//EN"
 "http://www.w3.org/TR/2001/REC-SVG-20010904/DTD/svg10.dtd">
<svg version="1.0" xmlns="http://www.w3.org/2000/svg"
 width="512.000000pt" height="512.000000pt" viewBox="0 0 512.000000 512.000000"
 preserveAspectRatio="xMidYMid meet">

<g transform="translate(0.000000,512.000000) scale(0.100000,-0.100000)"
fill="#000000" stroke="none">
<path d="M3115 5106 c-42 -18 -93 -79 -100 -120 l-7 -34 -356 -5 c-388 -4
-400 -6 -528 -66 -100 -47 -195 -130 -260 -228 -27 -41 -40 -53 -52 -47 -33
13 -110 16 -144 5 -19 -6 -46 -24 -60 -39 -15 -15 -244 -454 -511 -977 -715
-1403 -671 -1313 -670 -1366 1 -53 22 -99 59 -128 14 -11 216 -96 447 -188
456 -182 478 -188 548 -147 19 11 43 34 54 50 29 43 725 2437 725 2492 0 58
-25 109 -66 135 -19 12 -34 25 -34 30 0 19 87 88 136 107 51 19 77 20 384 20
l330 0 0 -115 0 -114 -42 -11 c-182 -47 -333 -134 -457 -265 -115 -122 -190
-255 -233 -417 l-22 -83 -3 -1363 -3 -1362 930 0 931 0 -3 1373 -3 1372 -28
89 c-55 176 -133 302 -265 428 -116 111 -255 187 -419 228 l-43 11 0 110 0
111 33 -5 c17 -3 285 -40 594 -83 561 -76 563 -77 608 -59 118 44 147 196 54
280 -21 19 -50 37 -64 41 -26 6 -26 7 12 24 157 70 134 294 -33 326 -24 4
-1020 -125 -1171 -152 -27 -5 -33 -3 -33 12 0 9 -11 36 -25 60 -42 71 -136
102 -210 70z"/>
<path d="M2250 393 c0 -220 3 -253 19 -288 21 -46 54 -79 94 -94 19 -8 283
-11 818 -11 648 0 795 2 822 14 39 16 82 61 96 99 7 17 11 126 11 278 l0 249
-930 0 -930 0 0 -247z"/>
</g>
</svg>
