<?xml version="1.0" standalone="no"?>
<!DOCTYPE svg PUBLIC "-//W3C//DTD SVG 20010904//EN"
 "http://www.w3.org/TR/2001/REC-SVG-20010904/DTD/svg10.dtd">
<svg version="1.0" xmlns="http://www.w3.org/2000/svg"
 width="512.000000pt" height="512.000000pt" viewBox="0 0 512.000000 512.000000"
 preserveAspectRatio="xMidYMid meet">

<g transform="translate(0.000000,512.000000) scale(0.100000,-0.100000)"
fill="#000000" stroke="none">
<path d="M1792 4676 c-29 -8 -87 -30 -130 -51 -74 -36 -98 -59 -603 -564
l-527 -526 -40 -85 c-22 -47 -45 -109 -51 -138 -15 -73 -15 -1431 0 -1504 6
-29 29 -91 51 -138 l40 -85 527 -526 526 -527 85 -40 c47 -22 109 -45 138 -51
73 -15 1431 -15 1504 0 29 6 91 29 138 51 l85 40 526 527 527 526 40 85 c22
47 45 109 51 138 15 73 15 1431 0 1504 -6 29 -29 91 -51 138 l-40 85 -527 526
-526 527 -85 40 c-47 22 -109 45 -138 51 -81 17 -1450 13 -1520 -3z m1478
-430 c19 -10 243 -226 496 -480 254 -253 470 -477 480 -496 18 -33 19 -72 19
-710 0 -638 -1 -677 -19 -710 -24 -46 -930 -952 -976 -976 -33 -18 -72 -19
-710 -19 -638 0 -677 1 -710 19 -46 24 -952 930 -976 976 -18 33 -19 72 -19
710 0 639 1 677 19 710 18 34 854 882 929 942 74 59 53 58 772 55 621 -2 662
-3 695 -21z"/>
<path d="M2502 3621 c-54 -14 -108 -56 -131 -103 -21 -44 -21 -53 -21 -640 l0
-595 23 -44 c15 -29 40 -54 71 -74 41 -25 58 -29 116 -29 58 0 75 4 116 29 31
20 56 45 71 74 l23 44 0 597 0 597 -23 44 c-41 78 -152 123 -245 100z"/>
<path d="M2480 1904 c-107 -46 -159 -174 -115 -282 64 -152 273 -172 369 -34
40 57 48 149 18 208 -54 104 -172 151 -272 108z"/>
</g>
</svg>
